<svg viewBox="0 0 512 512">
  <path
     d="m 200,352 h 16 c 22.1,0 40,17.9 40,40 v 8 c 0,8.8 -7.2,16 -16,16 -8.8,0 -16,-7.2 -16,-16 v -8 c 0,-4.4 -3.6,-8 -8,-8 h -16 c -4.4,0 -8,3.6 -8,8 v 80 c 0,4.4 3.6,8 8,8 h 16 c 4.4,0 8,-3.6 8,-8 v -8 c 0,-8.8 7.2,-16 16,-16 8.8,0 16,7.2 16,16 v 8 c 0,22.1 -17.9,40 -40,40 h -16 c -22.1,0 -40,-17.9 -40,-40 v -80 c 0,-22.1 17.9,-40 40,-40 z m 133.1,0 H 368 c 8.8,0 16,7.2 16,16 0,8.8 -7.2,16 -16,16 h -34.9 c -7.2,0 -13.1,5.9 -13.1,13.1 0,5.2 3,9.9 7.8,12 l 37.4,16.6 c 16.3,7.2 26.8,23.4 26.8,41.2 0,24.9 -20.2,45.1 -45.1,45.1 H 304 c -8.8,0 -16,-7.2 -16,-16 0,-8.8 7.2,-16 16,-16 h 42.9 c 7.2,0 13.1,-5.9 13.1,-13.1 0,-5.2 -3,-9.9 -7.8,-12 L 314.8,438.3 C 298.5,431.1 288,414.9 288,397.1 288,372.2 308.2,352 333.1,352 Z m 98.9,0 c 8.8,0 16,7.2 16,16 v 31.6 c 0,23 5.5,45.6 16,66 10.5,-20.3 16,-42.9 16,-66 V 368 c 0,-8.8 7.2,-16 16,-16 8.8,0 16,7.2 16,16 v 31.6 c 0,34.7 -10.3,68.7 -29.6,97.6 l -5.1,7.7 c -3,4.5 -8,7.1 -13.3,7.1 -5.3,0 -10.3,-2.7 -13.3,-7.1 l -5.1,-7.7 C 426.3,468.3 416,434.3 416,399.6 V 368 c 0,-8.8 7.2,-16 16,-16 z"
     style="fill:{highlightcolour}" />
  <path
     d="M 0,64 C 0,28.7 28.7,0 64,0 h 160 v 128 c 0,17.7 14.3,32 32,32 H 384 V 304 H 176 c -35.3,0 -64,28.7 -64,64 V 512 H 64 C 28.7,512 0,483.3 0,448 Z m 384,64 H 256 V 0 Z"
     style="fill:{linecolour}" />
</svg>
