<svg viewBox="0 0 512 512">
  <path
     d="m 216,72 h 260 c 17.7,0 30,6.3 30,24 0,17.7 -12.3,24 -30,24 H 216 c -17.7,0 -30,-6.3 -30,-24 0,-17.7 12.3,-24 30,-24 z m 0,160 h 260 c 17.7,0 30,6.3 30,24 0,17.7 -12.3,24 -30,24 H 216 c -17.7,0 -30,-6.3 -30,-24 0,-17.7 12.3,-24 30,-24 z m 0,160 h 260 c 17.7,0 30,6.3 30,24 0,17.7 -12.3,24 -30,24 H 216 c -17.7,0 -30,-6.3 -30,-24 0,-17.7 12.3,-24 30,-24 z"
     style="fill:{linecolour}" />
  <path
     d="m 32.9375,48 c -13.3,0 -24,10.7 -24,24 v 48 c 0,13.3 10.7,24 24,24 h 48 c 13.3,0 24,-10.7 24,-24 V 72 c 0,-13.3 -10.7,-24 -24,-24 z m -24,184 v 48 c 0,13.3 10.7,24 24,24 h 48 c 13.3,0 24,-10.7 24,-24 v -48 c 0,-13.3 -10.7,-24 -24,-24 h -48 c -13.3,0 -24,10.7 -24,24 z m 24,136 c -13.3,0 -24,10.7 -24,24 v 48 c 0,13.3 10.7,24 24,24 h 48 c 13.3,0 24,-10.7 24,-24 v -48 c 0,-13.3 -10.7,-24 -24,-24 z"
     style="fill:{highlightcolour}" />
</svg>
