<?xml version="1.0" encoding="UTF-8" standalone="no"?>
<svg
   viewBox="0 0 512 512"
   version="1.1"
   id="svg3435"
   sodipodi:docname="file_icon_template.svg"
   width="512"
   height="512"
   inkscape:export-filename="import.svg"
   inkscape:export-xdpi="96"
   inkscape:export-ydpi="96"
   inkscape:version="1.2.2 (732a01da63, 2022-12-09)"
   xmlns:inkscape="http://www.inkscape.org/namespaces/inkscape"
   xmlns:sodipodi="http://sodipodi.sourceforge.net/DTD/sodipodi-0.dtd"
   xmlns="http://www.w3.org/2000/svg"
   xmlns:svg="http://www.w3.org/2000/svg">
  <defs
     id="defs3439" />
  <sodipodi:namedview
     id="namedview3437"
     pagecolor="#ffffff"
     bordercolor="#000000"
     borderopacity="0.25"
     inkscape:showpageshadow="2"
     inkscape:pageopacity="0.0"
     inkscape:pagecheckerboard="0"
     inkscape:deskcolor="#d1d1d1"
     showgrid="false"
     showguides="false"
     inkscape:zoom="0.76953125"
     inkscape:cx="318.37563"
     inkscape:cy="418.43655"
     inkscape:window-width="1920"
     inkscape:window-height="986"
     inkscape:window-x="-11"
     inkscape:window-y="-11"
     inkscape:window-maximized="1"
     inkscape:current-layer="svg3435" />
  <!--!Font Awesome Free 6.5.2 by @fontawesome - https://fontawesome.com License - https://fontawesome.com/license/free Copyright 2024 Fonticons, Inc.-->
  <path
     id="path3433"
     style="fill:#000000;fill-opacity:1"
     d="M 287.52148,0.00585938 C 233.70557,0.0082976 179.88917,-0.02159433 126.07356,0.03441665 108.79693,0.46483206 91.872317,8.3545679 80.391993,21.265768 70.245247,32.548041 64.205994,47.519763 64.036957,62.721613 63.928635,68.822438 64.049028,74.924987 64,81.026563 c 5.05e-4,122.790837 -0.0045,245.581867 0.02093,368.372587 0.282245,16.12809 7.011373,32.03034 18.384687,43.46867 9.957454,10.16012 23.380373,16.87652 37.509583,18.62243 6.43183,0.80223 12.92767,0.42641 19.39066,0.51161 82.13273,-0.003 164.26579,0.005 246.39831,-0.0339 17.23,-0.36206 34.13927,-8.15198 45.65621,-20.96588 9.67535,-10.61673 15.66603,-24.56151 16.49993,-38.91752 0.28833,-5.42307 0.0727,-10.85676 0.14161,-16.28458 -0.002,-94.26622 0.003,-188.53266 -0.0253,-282.79874 -0.32724,-16.53736 -7.351,-32.86561 -19.26481,-44.36228 C 415.24566,95.110844 401.72283,81.640483 388.23463,68.1337 371.32549,51.231026 354.42339,34.320538 337.49012,17.442487 325.5795,6.0869291 309.11049,-0.24470908 292.67305,-8.5433905e-4 290.95581,-0.01467156 289.23871,-0.00549417 287.52148,0.00585938 Z M 120.85938,35.986328 c 13.36102,0.03569 26.72296,0.0019 40.08437,0.01367 42.35208,0 84.70417,0 127.05625,0 0.006,31.23826 -0.033,62.477343 0.0468,93.71507 0.49399,11.43218 7.70849,22.29763 18.08702,27.1372 5.0755,2.45151 10.78623,3.41264 16.39552,3.14773 29.82356,0 59.64713,0 89.4707,0 -2.1e-4,100.24615 0.004,200.4926 -0.0204,300.73856 -0.22903,7.27967 -6.08963,13.98345 -13.32996,15.01882 -3.39024,0.50632 -6.82791,0.12833 -10.23945,0.24261 -90.39718,-0.002 -180.79472,0.002 -271.19166,-0.0228 -7.19198,-0.24795 -13.80258,-5.98378 -14.94713,-13.11111 -0.54065,-3.45646 -0.16178,-6.9664 -0.27137,-10.44695 -0.003,-132.99323 0.002,-265.98646 0.0156,-398.979687 0.2673,-4.481238 2.76587,-8.48599 5.70388,-11.738291 2.70365,-2.954022 6.35416,-5.184116 10.39725,-5.570833 0.9098,-0.111292 1.82739,-0.125025 2.74263,-0.144001 z m 202.89843,21.167969 c 2.00384,0.228993 3.22116,2.057532 4.59148,3.329755 21.14666,21.154567 42.31246,42.292728 63.43508,63.469638 1.38286,1.92687 0.23952,4.92767 -1.97187,5.65373 -2.08336,0.68384 -4.31137,0.2509 -6.45977,0.3656 -15.19088,-0.022 -30.38285,0.10134 -45.573,0.006 -3.6311,-0.0839 -7.28732,-1.10865 -10.22105,-3.30068 -4.61796,-3.27779 -7.80414,-8.79517 -7.5678,-14.54215 -0.12308,-17.277677 -0.01,-34.555818 0.0267,-51.833616 0.25503,-1.739316 1.96476,-3.2382 3.74023,-3.148437 z" />
  <path
     id="text5366"
     style="font-size:200px;font-family:'UD Digi Kyokasho NP-B';-inkscape-font-specification:'UD Digi Kyokasho NP-B';fill:#ffffff;fill-opacity:1;stroke-width:1.27631;paint-order:markers stroke fill"
     d="m 359.22348,196.20312 c 14.97,0.33035 29.20799,10.44542 34.41015,24.49219 3.4599,8.85424 2.75554,19.08301 -1.3457,27.59961 30.07071,0.0282 60.14412,-0.05 90.21289,0.18946 13.22598,1.24932 25.04993,10.83992 29.55274,23.2539 2.5895,7.43564 2.91789,15.62903 1.08279,23.27661 -1.97718,8.29745 -6.84042,15.9611 -13.82945,20.9185 -5.26373,3.82888 -11.62442,6.04256 -18.1033,6.51786 -4.91907,0.3704 -9.85451,0.0338 -14.7809,0.13418 -24.70443,-0.008 -49.40886,-0.0166 -74.11328,-0.0249 4.44926,9.24106 4.82387,20.47784 0.4707,29.82617 -5.89203,13.00626 -19.61697,22.07818 -33.91832,22.22354 -9.47472,0.18943 -18.73351,-3.74917 -25.80602,-9.93358 -21.49109,-18.16661 -43.15622,-36.12122 -64.54049,-54.41312 -5.54298,-4.99265 -9.0322,-12.05089 -10.21459,-19.37421 -1.45635,-8.87582 0.60263,-18.38108 6.04136,-25.60216 2.48956,-3.42494 5.63002,-6.30816 8.93983,-8.92254 21.11372,-17.68808 42.11872,-35.50263 63.41728,-52.96735 6.42432,-4.80812 14.5176,-7.31378 22.52431,-7.19418 z" />
  <path
     id="text5366-5"
     style="font-size:200px;font-family:'UD Digi Kyokasho NP-B';-inkscape-font-specification:'UD Digi Kyokasho NP-B';fill:#000000;fill-opacity:1;stroke-width:1.27631;paint-order:markers stroke fill"
     d="m 358.97731,216.20052 c 8.09158,0.36518 15.76763,6.7833 16.8113,14.94671 0.62283,5.43523 -1.94708,10.9533 -6.17722,14.33646 -4.43929,3.95961 -9.08458,7.68016 -13.57132,11.58544 -4.41023,3.73943 -8.82044,7.47889 -13.23094,11.21802 45.8379,0.0141 91.67721,-0.0434 137.51416,0.0787 7.145,0.59366 13.22038,6.91421 13.76125,14.02741 0.90898,6.13063 -0.95682,13.01562 -5.9551,16.96547 -3.42795,2.71828 -7.97967,3.55157 -12.25724,3.19411 -44.34853,0 -88.69708,0 -133.04561,0 9.50619,8.14972 19.18847,16.09391 28.53234,24.43173 4.33504,4.50303 5.99128,11.76744 3.05254,17.45257 -3.37863,6.96794 -11.61964,11.54325 -19.3158,9.83245 -3.50013,-0.69591 -6.6241,-2.60545 -9.22894,-4.99287 -16.37432,-13.71599 -32.8881,-27.56395 -49.30182,-41.37543 -4.99424,-4.23991 -10.04015,-8.42719 -14.98238,-12.7236 -4.98881,-5.28481 -5.08057,-14.59392 0.24281,-19.69039 3.02091,-3.06196 6.59147,-5.50338 9.76884,-8.39274 18.97523,-15.91068 37.88568,-31.88754 56.95607,-47.66381 3.02083,-2.12958 6.71264,-3.37715 10.42706,-3.23028 z" />
</svg>
