<svg viewBox="0 0 512 512">
  <path
     d="M 169.8,165.3 C 177.7,143 198.9,128 222.6,128 h 58.3 c 34.9,0 63.1,28.3 63.1,63.1 0,22.6 -12.1,43.5 -31.7,54.8 L 280,264.4 c -0.2,13 -10.9,23.6 -24,23.6 -13.3,0 -24,-10.7 -24,-24 v -13.5 c 0,-8.6 4.6,-16.5 12.1,-20.8 l 44.3,-25.4 c 4.7,-2.7 7.6,-7.7 7.6,-13.1 0,-8.4 -6.8,-15.1 -15.1,-15.1 h -58.3 c -3.4,0 -6.4,2.1 -7.5,5.3 l -0.4,1.2 c -4.4,12.5 -18.2,19 -30.6,14.6 -12.4,-4.4 -19,-18.2 -14.6,-30.6 l 0.4,-1.2 z M 224,352 a 32,32 0 1 1 64,0 32,32 0 1 1 -64,0 z"
     style="fill:{linecolour}" />
  <path
     d="m 464,256 a 208,208 0 1 0 -416,0 208,208 0 1 0 416,0 z M 0,256 a 256,256 0 1 1 512,0 256,256 0 1 1 -512,0 z"
     style="fill:{highlightcolour}" />
</svg>
