<svg viewBox="0 0 430 512">
  <path
     style="fill:{linecolour}"
     d="M 228.68359,0.00721219 C 226.96635,-0.00660502 225.24847,0.00171803 223.53124,0.01307157 169.71539,0.01550978 115.89953,-0.01364248 62.083982,0.04236844 44.807372,0.47278342 27.882653,8.36165 16.40234,21.272837 6.2556038,32.555099 0.21590781,47.52608 0.04687081,62.727915 c -0.108322,6.100819 0.011919,12.205071 -0.037109,18.306641 5.05e-4,122.790714 -0.0039,245.580494 0.02148,368.371094 0.282245,16.12807 7.01146299,32.03043 18.38476619,43.46875 9.957444,10.16011 23.380574,16.87714 37.509774,18.62304 6.43182,0.80223 12.92764,0.42652 19.39062,0.51172 82.132648,-0.003 164.265998,0.006 246.398438,-0.0332 17.22998,-0.36206 34.13932,-8.15291 45.65625,-20.9668 9.67534,-10.61672 15.66415,-24.56197 16.49805,-38.91797 0.28832,-5.42306 0.0737,-10.85538 0.14257,-16.2832 -8e-4,-37.74017 -0.009,-75.48049 -0.01,-113.2207 -12.00064,-0.004 -24.00132,-0.01 -36.00196,-0.0137 -0.002,46.05731 10e-4,92.11469 -0.01,138.17187 -0.22903,7.27966 -6.08976,13.98416 -13.33008,15.01953 -3.39024,0.50632 -6.8287,0.12791 -10.24023,0.24219 -90.39709,-0.002 -180.79456,10e-4 -271.191408,-0.0234 -7.19197,-0.24795 -13.80272,-5.984 -14.94727,-13.11133 -0.54065,-3.45645 -0.16189,-6.96476 -0.27148,-10.44531 -0.003,-132.9931 0.002,-265.98737 0.0156,-398.980465 0.2673,-4.481233 2.76512,-8.485983 5.70313,-11.738281 2.70365,-2.954019 6.35535,-5.183596 10.39844,-5.570313 0.9098,-0.111292 1.82695,-0.125555 2.74219,-0.144531 13.361,0.03569 26.72258,0.0019 40.08398,0.01367 H 224.00976 c 0.006,31.238229 -0.0329,62.477148 0.0469,93.71484 0.49398,11.43217 7.70937,22.29716 18.08789,27.13672 5.07549,2.45151 10.78524,3.41335 16.39453,3.14844 h 89.47068 c -6e-5,29.43358 -0.006,58.86717 -0.006,88.30078 11.99686,7.8e-4 23.9935,0.0275 35.99024,0.0508 -0.004,-31.78316 0.002,-63.5665 -0.008,-95.34961 -0.32724,-16.53734 -7.35182,-32.86662 -19.26562,-44.36328 C 351.25456,95.117781 337.73232,81.646794 324.24414,68.140024 307.33501,51.237367 290.43325,34.328605 273.49999,17.450571 261.58939,6.095025 245.12101,-0.23664231 228.68359,0.00721219 Z M 259.76757,57.161509 c 2.00384,0.228993 3.22148,2.057856 4.5918,3.330078 21.14664,21.154546 42.31295,42.291863 63.43555,63.468743 1.38285,1.92687 0.23873,4.92824 -1.97266,5.6543 -2.08336,0.68384 -4.31059,0.25054 -6.45898,0.36524 -15.19087,-0.022 -30.38409,0.1012 -45.57422,0.006 -3.6311,-0.0839 -7.28698,-1.10876 -10.22071,-3.30079 -4.61795,-3.27778 -7.8047,-8.79404 -7.56836,-14.54101 -0.12308,-17.277659 -0.009,-34.556203 0.0274,-51.833984 0.25503,-1.739314 1.96476,-3.2382 3.74023,-3.148437 z" />
  <path
     style="font-size:200px;font-family:'UD Digi Kyokasho NP-B';-inkscape-font-specification:'UD Digi Kyokasho NP-B';fill:{highlightcolour};stroke-width:1.27631;paint-order:markers stroke fill"
     d="m 294.98707,216.20773 c 8.09158,0.36518 15.76763,6.7833 16.8113,14.94671 0.62283,5.43523 -1.94708,10.9533 -6.17722,14.33646 -4.43929,3.95961 -9.08458,7.68016 -13.57132,11.58544 -4.41023,3.73943 -8.82044,7.47889 -13.23094,11.21802 45.8379,0.0141 91.67721,-0.0434 137.51416,0.0787 7.145,0.59366 13.22038,6.91421 13.76125,14.02741 0.90898,6.13063 -0.95682,13.01562 -5.9551,16.96547 -3.42795,2.71828 -7.97967,3.55157 -12.25724,3.19411 -44.34853,0 -88.69708,0 -133.04561,0 9.50619,8.14972 19.18847,16.09391 28.53234,24.43173 4.33504,4.50303 5.99128,11.76744 3.05254,17.45257 -3.37863,6.96794 -11.61964,11.54325 -19.3158,9.83245 -3.50013,-0.69591 -6.6241,-2.60545 -9.22894,-4.99287 -16.37432,-13.71599 -32.8881,-27.56395 -49.30182,-41.37543 -4.99424,-4.23991 -10.04015,-8.42719 -14.98238,-12.7236 -4.98881,-5.28481 -5.08057,-14.59392 0.24281,-19.69039 3.02091,-3.06196 6.59147,-5.50338 9.76884,-8.39274 18.97523,-15.91068 37.88568,-31.88754 56.95607,-47.66381 3.02083,-2.12958 6.71264,-3.37715 10.42706,-3.23028 z" />
</svg>
