<svg viewBox="0 0 512 512">
  <path
     d="m 216,72 h 260 c 17.7,0 30,6.3 30,24 0,17.7 -12.3,24 -30,24 H 216 c -17.7,0 -30,-6.3 -30,-24 0,-17.7 12.3,-24 30,-24 z m 0,160 h 260 c 17.7,0 30,6.3 30,24 0,17.7 -12.3,24 -30,24 H 216 c -17.7,0 -30,-6.3 -30,-24 0,-17.7 12.3,-24 30,-24 z m 0,160 h 260 c 17.7,0 30,6.3 30,24 0,17.7 -12.3,24 -30,24 H 216 c -17.7,0 -30,-6.3 -30,-24 0,-17.7 12.3,-24 30,-24 z"
     style="fill:{linecolour}" />
  <path
     style="font-style:normal;font-variant:normal;font-weight:normal;font-stretch:normal;font-size:325.333px;line-height:0.85;font-family:'UD Digi Kyokasho NP-B';-inkscape-font-specification:'UD Digi Kyokasho NP-B';fill:{highlightcolour};fill-opacity:1;stroke-width:0.885101;paint-order:markers stroke fill"
     d="m 133.91184,38.636565 c -3.9608,0.06174 -8.14668,0.929155 -11.21531,3.71197 -2.9175,2.632749 -4.18365,6.720433 -4.33442,10.641135 -0.0755,0.937592 -0.77343,1.806701 -1.66354,1.944418 -0.858,0.131911 -1.63618,-0.36691 -2.1395,-1.057989 C 107.5804,46.836916 98.54554,42.201192 89.063794,40.191586 84.749046,39.244528 80.345861,38.77715 75.940619,38.661171 c -1.289434,-0.02644 -2.797644,-0.04405 -4.170924,0.0031 -9.743157,0.284097 -19.362816,3.050007 -27.999625,7.729217 -0.496916,0.267413 -1.262779,0.695878 -1.8534,1.039423 C 40.44183,48.29959 39.114423,49.139924 37.689612,50.1328 29.898543,55.530599 23.318042,62.723607 18.233057,70.892868 11.552419,81.487287 7.2725885,93.668665 5.5737627,106.213 c -1.5853528,11.41941 -1.3580441,23.07989 0.2981765,34.47549 0.6141215,4.03178 1.5102381,8.2093 2.6504668,12.19957 1.03795,3.64048 2.280268,7.1926 3.779515,10.70697 0.68273,1.59788 1.376333,3.10651 2.174369,4.6919 0.941072,1.87803 1.974032,3.73452 3.014648,5.45895 2.051702,3.39436 4.323155,6.64762 6.848296,9.67703 0.591669,0.70178 1.358066,1.59043 2.042201,2.34202 6.100101,6.73586 13.605363,12.1248 21.946178,15.36232 3.873064,1.52677 7.897377,2.62353 11.979736,3.33595 0.42836,0.0741 1.008054,0.16952 1.503185,0.24003 2.978451,0.45412 6.181328,0.70821 9.268655,0.74815 9.884106,0.19906 20.011395,-1.36253 28.890881,-6.09238 6.12919,-3.26577 11.49197,-8.03814 15.60874,-13.78621 0.68511,-0.90279 1.37023,-1.80553 2.05534,-2.70847 0.73643,4.51734 1.05323,9.25563 3.20013,13.35624 2.00084,3.98902 5.80949,6.91116 10.0707,7.66374 3.95652,0.79362 8.16231,0.52004 11.92508,-1.02031 4.11914,-1.77522 7.34209,-5.57665 8.54915,-10.04913 0.90398,-3.0415 0.8979,-6.25241 0.83618,-9.40291 -9.6e-4,-42.76378 0.0124,-85.527882 -0.0239,-128.291349 -0.19234,-6.304797 -3.91538,-12.544113 -9.6115,-14.927119 -2.72555,-1.212597 -5.72343,-1.611886 -8.66839,-1.556871 z M 79.273481,73.819764 c 7.761915,-0.01078 15.462573,3.019051 21.317129,8.327884 6.41553,5.581593 11.40288,13.175206 13.23906,21.743942 0.93182,4.00433 0.95893,8.1443 0.92984,12.24038 -0.0565,6.41897 0.3039,12.9169 -1.01056,19.2378 -1.45265,7.65426 -4.77084,14.91485 -9.6231,20.86016 -4.18576,5.11968 -9.305918,9.65737 -15.441052,11.97024 -5.519325,2.1633 -11.634843,2.22897 -17.354574,0.95653 -5.723053,-1.25621 -10.984741,-4.46556 -14.961761,-8.9205 -5.86949,-6.60304 -9.357203,-15.18933 -10.985653,-23.95689 -1.231289,-6.69519 -1.486649,-13.56556 -1.064518,-20.36012 0.616274,-8.96407 2.840811,-17.964878 7.506191,-25.598869 3.794075,-6.273255 9.206104,-11.722915 15.936448,-14.380055 3.663582,-1.479791 7.592876,-2.122897 11.51255,-2.120502 z M 32.170841,236.20996 c 5.305705,0 -10.719408,2.36034 -14.12321,6.71839 -2.661141,3.37776 -3.856906,7.84093 -3.637612,12.17496 -0.0039,64.29167 -0.01675,128.58372 0.01306,192.87529 0.09084,4.55391 1.232475,9.4076 4.472604,12.66465 3.090247,3.08705 7.526381,4.11499 11.691127,4.05705 4.320785,0.01 8.897091,-1.34357 11.876132,-4.76957 2.871612,-3.25863 4.087809,-7.68444 4.543893,-11.99388 0.272607,-1.98572 0.544839,-3.97156 0.817226,-5.9573 2.67589,3.2521 5.303284,6.57812 8.455618,9.35135 6.376286,5.72 13.888955,10.14861 22.03666,12.42405 6.597779,1.92758 13.514839,2.41193 20.333961,1.95902 0.46455,-0.0403 1.04623,-0.0708 1.55237,-0.12022 1.39503,-0.12027 2.67436,-0.2736 4.0952,-0.48485 7.5711,-1.1234 14.9903,-3.59719 21.64162,-7.56071 0.60378,-0.3678 1.44846,-0.88302 2.12965,-1.33008 0.81233,-0.53593 1.634,-1.09812 2.34141,-1.61538 0.68391,-0.49702 1.3415,-0.99108 1.93097,-1.45967 5.95306,-4.69135 11.06159,-10.49858 15.24535,-16.93049 0.21092,-0.32795 0.58866,-0.91215 0.80836,-1.27425 7.80433,-12.43241 11.83669,-27.11669 13.01096,-41.84198 0.37235,-4.78766 0.5311,-9.7057 0.39252,-14.43818 -0.20702,-7.14371 -1.04051,-14.2777 -2.64667,-21.22963 -0.2156,-0.90135 -0.49331,-2.05356 -0.76388,-3.04539 -0.43236,-1.63543 -0.87524,-3.09287 -1.39983,-4.7176 -4.70931,-14.31424 -13.06138,-27.45667 -24.43645,-36.93588 -7.43524,-6.17344 -16.29474,-10.46184 -25.62966,-12.33908 -8.60095,-1.76435 -17.518768,-1.80836 -26.148337,-0.23093 -4.972555,0.94987 -9.82866,2.60497 -14.344931,4.97975 -0.817999,0.42838 -1.836555,1.00061 -2.708536,1.53752 -3.589868,2.14464 -6.777772,4.92143 -9.800934,7.84668 -0.595303,0.55696 -1.190613,1.11386 -1.785924,1.67075 -0.0111,-21.12797 0.02729,-42.25686 -0.03445,-63.38422 -0.252527,-6.35609 -4.24879,-12.32481 -9.850354,-14.82214 -3.15259,-1.48167 -13.509003,-1.77803 -10.077921,-1.77803 z m 54.939696,97.99915 c 5.944797,-0.017 11.944503,1.61073 16.921783,5.05596 7.58578,5.14791 12.9299,13.39301 15.66127,22.30723 2.70867,8.8227 3.20419,18.23527 2.53193,27.42518 -0.65395,8.74653 -2.81984,17.51965 -7.3259,25.00173 -3.61976,6.05959 -8.76797,11.31962 -15.16472,14.05844 -5.971592,2.49207 -12.703574,3.00594 -18.95791,1.4375 -7.043228,-1.86194 -13.112109,-6.53729 -17.875135,-12.14274 -5.436358,-6.39727 -9.026831,-14.44271 -10.299027,-22.88226 -0.844962,-5.16797 -0.776791,-10.42695 -0.734095,-15.65025 -0.0295,-5.44336 -0.1772,-10.98707 1.253907,-16.2791 1.534762,-6.08918 4.607808,-11.72949 8.817061,-16.24053 5.446754,-6.03393 12.661665,-10.61081 20.618298,-11.7493 1.506003,-0.23631 3.030208,-0.33476 4.552538,-0.34186 z" />
</svg>
