<svg viewBox="0 0 512 512">
  <path
     style="fill:{linecolour}"
     d="M 223.53135,0.0136674 C 169.71544,0.01610562 115.89904,-0.01378631 62.083432,0.04222467 44.806802,0.47264008 27.882189,8.3623759 16.401865,21.273576 6.2551194,32.555849 0.21586644,47.527571 0.04682944,62.729421 c -0.108322,6.100825 0.012071,12.203374 -0.036957,18.30495 5.05e-4,122.790839 -0.0045,245.581869 0.02093,368.372589 0.282245,16.12809 7.01137296,32.03034 18.38468656,43.46867 9.957454,10.16012 23.380373,16.87652 37.509583,18.62243 6.43183,0.80217 12.92767,0.4266 19.39066,0.51129 63.685158,-0.004 127.370308,-0.009 191.055468,-0.0133 -1.61365,-2.16898 -3.24999,-4.32114 -4.84766,-6.50195 -0.33004,-0.46156 -0.85598,-1.2068 -1.23228,-1.79594 -1.9354,-2.95271 -3.27514,-6.33239 -3.76186,-9.83492 -0.18857,-2.98267 -0.16194,-5.9784 -0.24609,-8.9668 -0.0381,-2.96419 -0.0773,-5.92838 -0.11524,-8.89258 -67.68622,0.001 -135.37286,0.007 -203.058828,-0.0232 -7.21417,-0.30878 -13.80904,-6.13091 -14.85887,-13.30333 -0.49358,-3.36139 -0.13355,-6.76853 -0.2405,-10.15046 -0.003,-133.02656 0.002,-266.05312 0.0156,-399.079689 0.26807,-4.480774 2.76672,-8.485158 5.70388,-11.738291 2.70365,-2.954022 6.35416,-5.184116 10.39725,-5.570833 3.06676,-0.287543 6.1522,-0.04626 9.227,-0.130329 53.552078,0 107.104168,0 160.656248,0 0.006,31.23826 -0.033,62.477343 0.0468,93.715072 0.49391,11.43207 7.70871,22.29755 18.08702,27.1372 5.0755,2.45151 10.78623,3.41264 16.39552,3.14773 29.82356,0 59.64713,0 89.4707,0 -0.003,74.89714 -0.005,149.79427 -0.008,224.69141 4.63144,0.0485 9.26666,-0.1318 13.89544,0.0336 6.07763,0.4277 11.97317,2.80113 16.71009,6.62316 1.80089,1.32322 3.60158,2.6467 5.40228,3.97018 -0.003,-80.805 0.009,-161.61032 -0.0262,-242.41511 -0.35081,-16.53758 -7.40269,-32.85441 -19.33255,-44.33431 C 350.52576,94.388822 336.3424,80.258621 322.19465,66.09298 305.96769,49.87426 289.74985,33.645622 273.49999,17.450295 261.58938,6.0946897 245.12017,-0.23632918 228.68292,0.00695368 226.96568,-0.00686354 225.24858,0.00231385 223.53135,0.0136674 Z M 259.94346,57.17773 c 2.04821,0.38516 3.24725,2.289671 4.69934,3.597769 21.05214,21.059993 42.12328,42.103721 63.15144,63.186001 1.38286,1.92687 0.23952,4.92767 -1.97187,5.65373 -2.08336,0.68384 -4.31137,0.2509 -6.45977,0.3656 -15.19088,-0.022 -30.38285,0.10134 -45.573,0.006 -3.6311,-0.0839 -7.28732,-1.10865 -10.22105,-3.30068 -4.61796,-3.27779 -7.80414,-8.79517 -7.5678,-14.54215 -0.12308,-17.273773 -0.01,-34.548007 0.0267,-51.821899 0.2452,-1.80871 2.07639,-3.346041 3.91601,-3.144531 z m 120.8418,376.12891 c -2.96261,2.28908 -5.84964,4.77605 -9.33668,6.24531 -2.86084,1.27577 -5.97698,2.0475 -9.12235,1.95983 -4.7746,0.11815 -9.55071,0.15877 -14.32613,0.23236 -0.0408,6.61103 0.0739,13.22553 -0.0648,19.83429 -0.62248,7.03413 -6.43849,13.30289 -13.48126,14.22142 -3.3599,0.4491 -6.75725,0.0995 -10.13396,0.20796 -3.71081,0 -7.42162,0 -11.13243,0 -0.0206,4.56368 0.0475,9.12867 0.0273,13.69126 -0.2503,6.13039 -2.42975,12.18983 -6.31198,16.96046 -1.3151,1.77898 -2.63046,3.55777 -3.9458,5.33656 6.80156,-0.0505 13.60573,0.0876 20.40554,-0.0794 16.76071,-0.8043 33.04513,-8.60007 44.20798,-21.12488 9.5607,-10.59822 15.48045,-24.45761 16.30108,-38.72497 0.28542,-5.42637 0.0718,-10.86318 0.14008,-16.29423 0,-1.65729 0,-3.31458 0,-4.97187 -1.07552,0.83529 -2.15104,1.67057 -3.22656,2.50586 z" />
  <g
     aria-label="+"
     style="font-size:200px;font-family:'UD Digi Kyokasho NP-B';-inkscape-font-specification:'UD Digi Kyokasho NP-B';paint-order:markers stroke fill"
     transform="translate(-37.445618,28.489306)">
    <path
       d="m 317.36363,288.67512 c -7.13779,0.0511 -14.27711,4.98159 -16.0163,12.05249 -0.96029,4.10344 -0.35166,8.34617 -0.5178,12.51375 -10e-6,16.75201 0,33.50403 0,50.25604 -20.20654,0.0183 -40.41524,-0.0721 -60.62034,0.0864 -6.77545,0.53404 -12.61943,6.16027 -13.7575,12.80756 -1.34034,6.17408 0.12587,13.26911 4.91841,17.6306 3.05334,2.85789 7.30345,4.25503 11.45722,4.01381 19.33399,0.0514 38.66815,0.008 58.00221,0.0217 0.0174,20.19989 -0.0694,40.4021 0.0824,60.60045 0.52338,6.72583 6.06325,12.54618 12.64797,13.748 6.31472,1.44883 13.58014,-0.19501 17.94493,-5.18105 2.79079,-3.08813 4.17626,-7.32544 3.86344,-11.46604 0.0453,-19.23375 0.0185,-38.46757 0.0214,-57.70136 20.15194,-0.0169 40.30635,0.0697 60.45666,-0.0879 6.83773,-0.56742 12.90317,-6.16402 13.94936,-12.96009 1.073,-5.43868 0.24902,-11.57011 -3.38272,-15.92636 -3.38386,-3.94629 -8.71727,-5.95456 -13.86466,-5.58326 -19.05288,-7.9e-4 -38.10577,-0.001 -57.15864,-0.003 -0.0194,-20.16027 0.0738,-40.32335 -0.0896,-60.4818 -0.55497,-6.49655 -5.65687,-12.20422 -11.96778,-13.70844 -1.94367,-0.50928 -3.96234,-0.70012 -5.96857,-0.63204 z"
       style="fill:{highlightcolour};stroke-width:1.2688" />
  </g>
</svg>
