<svg viewBox="0 0 512 512">
  <path
     d="m 216,72 h 260 c 17.7,0 30,6.3 30,24 0,17.7 -12.3,24 -30,24 H 216 c -17.7,0 -30,-6.3 -30,-24 0,-17.7 12.3,-24 30,-24 z m 0,160 h 260 c 17.7,0 30,6.3 30,24 0,17.7 -12.3,24 -30,24 H 216 c -17.7,0 -30,-6.3 -30,-24 0,-17.7 12.3,-24 30,-24 z m 0,160 h 260 c 17.7,0 30,6.3 30,24 0,17.7 -12.3,24 -30,24 H 216 c -17.7,0 -30,-6.3 -30,-24 0,-17.7 12.3,-24 30,-24 z"
     style="fill:{linecolour}" />
  <path
     style="fill:{highlightcolour}"
     d="m 22.067532,56 c 0,-13.3 10.7,-24 24,-24 h 32 c 13.3,0 23.999998,10.7 23.999998,24 v 120 h 16 c 13.3,0 24,10.7 24,24 0,13.3 -10.7,24 -24,24 H 38.067532 c -13.3,0 -24,-10.7 -24,-24 0,-13.3 10.7,-24 24,-24 h 16 V 80 h -8 c -13.3,0 -24,-10.7 -24,-24 z m 62.7,285.2 c -6.5,-7.4 -18.3,-6.9 -24,1.2 l -11.2,15.5 c -7.7,10.8 -22.7,13.3 -33.5,5.6 -10.7999996,-7.7 -13.2999996,-22.7 -5.6,-33.5 l 11.1,-15.6 c 23.7,-33.2 72.3,-35.6 99.199998,-4.9 21.3,24.4 20.8,60.9 -1.1,84.7 L 84.867532,432 h 33.199998 c 13.3,0 24,10.7 24,24 0,13.3 -10.7,24 -24,24 H 30.067532 c -9.5,0 -18.2,-5.6 -21.9999996,-14.4 -3.8,-8.8 -2.1,-18.9 4.2999996,-25.9 l 72,-78 c 5.3,-5.8 5.4,-14.6 0.3,-20.5 z" />
</svg>
