<svg viewBox="0 0 512 512">
  <path
     d="m 176,352 h 32 c 30.9,0 56,25.1 56,56 0,30.9 -25.1,56 -56,56 h -16 v 32 c 0,8.8 -7.2,16 -16,16 -8.8,0 -16,-7.2 -16,-16 v -48 -80 c 0,-8.8 7.2,-16 16,-16 z m 32,80 c 13.3,0 24,-10.7 24,-24 0,-13.3 -10.7,-24 -24,-24 h -16 v 48 z m 96,-80 h 32 c 26.5,0 48,21.5 48,48 v 64 c 0,26.5 -21.5,48 -48,48 h -32 c -8.8,0 -16,-7.2 -16,-16 V 368 c 0,-8.8 7.2,-16 16,-16 z m 32,128 c 8.8,0 16,-7.2 16,-16 v -64 c 0,-8.8 -7.2,-16 -16,-16 h -16 v 96 z m 80,-112 c 0,-8.8 7.2,-16 16,-16 h 48 c 8.8,0 16,7.2 16,16 0,8.8 -7.2,16 -16,16 h -32 v 32 h 32 c 8.8,0 16,7.2 16,16 0,8.8 -7.2,16 -16,16 h -32 v 48 c 0,8.8 -7.2,16 -16,16 -8.8,0 -16,-7.2 -16,-16 v -64 z"
     style="fill:{highlightcolour}" />
  <path
     d="M 384,128 H 256 V 0 Z"
     style="fill:{linecolour}"  />
  <path
     d="M 0,64 C 0,28.7 28.7,0 64,0 h 160 v 128 c 0,17.7 14.3,32 32,32 H 384 V 304 H 176 c -35.3,0 -64,28.7 -64,64 V 512 H 64 C 28.7,512 0,483.3 0,448 Z"
     style="fill:{linecolour}" />
</svg>

