<svg viewBox="0 0 473 461">
  <path
     d="M 64,0 C 28.700035,0 0,28.700035 0,64 v 320 c 0,35.29996 28.700035,64 64,64 h 100.48047 c -2.14286,-16.58563 5.355,-33.63982 9.45312,-48 H 64 c -8.799991,0 -16,-7.20001 -16,-16 V 64 c 0,-8.799991 7.200009,-16 16,-16 h 16 v 104 c 0,13.29999 10.70001,24 24,24 h 192 c 13.29999,0 24,-10.70001 24,-24 V 51.900391 l 0.80078,0.798828 74.59961,74.400391 -0.0996,0.0996 c 3,3 4.69922,7.10078 4.69922,11.30078 v 13.77344 c 16.05205,-1.64833 35.71423,3.07813 47.90039,9.79883 V 138.5996 c 0,-16.99998 -6.70118,-33.29884 -18.70117,-45.29883 l 0.10156,-0.10156 -74.5,-74.500001 C 342.80079,6.699231 326.49998,0 309.5,0 Z m 64,48 h 144 v 80 H 128 Z m 94.40039,162.39453 c -32.72439,0.25534 -63.83994,22.28738 -74.86328,53.11133 -11.9531,30.78862 -2.56222,68.20288 22.48437,89.7207 4.36899,3.95557 9.19237,7.32884 14.31055,10.15235 3.30443,-11.58647 8.01407,-23.76895 13.9707,-32.34961 -7.92798,-5.14944 -14.36796,-12.5523 -17.75195,-21.5625 -9.01027,-21.1493 0.49216,-47.90387 20.91797,-58.52539 6.97704,-3.84272 14.94806,-5.84081 22.91016,-5.79493 15.14617,-0.16386 29.53603,7.99365 38.13086,20.1875 8.24357,-8.24535 16.48231,-16.49553 24.72851,-24.73828 -11.00007,-13.5016 -26.13707,-23.64086 -43.21289,-27.71679 -7.05494,-1.78454 -14.34859,-2.63183 -21.625,-2.48438 z m 225.5,111.49609 C 431.94253,337.87314 415.97203,353.84396 400,369.8125 V 384 c 0,8.79999 -7.20001,16 -16,16 h -14.17383 c -18.38661,16.51635 -31.43166,34.18003 -49.04492,48 h 63.11914 c 35.29997,0 64,-28.70004 64,-64 z"
     style="fill:{linecolour}" />
  <path
     style="fill:{highlightcolour};stroke-width:0.740069"
     d="m 407.58789,175.76172 c -12.53153,0.26184 -24.92266,4.94333 -34.44856,13.09912 -3.44471,2.96611 -6.51238,6.33442 -9.76704,9.50188 -46.64822,46.63228 -93.3121,93.24914 -139.95054,139.89105 -6.69429,6.78454 -11.54986,15.34066 -13.98399,24.55383 -7.00986,24.54454 -14.05609,49.07914 -21.04323,73.6299 -1.61898,6.29611 0.15179,13.32468 4.57487,18.09166 4.28158,4.76999 10.98167,7.19095 17.32336,6.26032 2.96834,-0.46075 5.79819,-1.52638 8.69753,-2.28146 22.91507,-6.56391 45.84121,-13.09062 68.74936,-19.67776 9.1286,-2.73146 17.49676,-7.88691 24.09388,-14.75708 48.5092,-48.4915 97.03242,-96.96916 145.53286,-145.46932 8.73511,-8.85516 14.28184,-20.75784 15.47174,-33.13703 1.3561,-13.24478 -2.26394,-26.94153 -10.08308,-37.72867 -2.71907,-3.89313 -6.14718,-7.19805 -9.50232,-10.53035 -3.91711,-3.86356 -7.64299,-7.98255 -12.18397,-11.14104 -9.65074,-6.96399 -21.59013,-10.60374 -33.48087,-10.30505 z m 2.07813,39.47266 c 4.04758,0.17551 7.94062,2.03912 10.70644,4.98488 2.69822,2.56002 5.3142,5.29192 7.98044,7.91894 3.37029,3.05474 5.41961,7.55269 5.28295,12.12071 -0.0358,4.28225 -1.99427,8.44547 -5.14361,11.32484 -6.53387,6.55737 -13.06774,13.11474 -19.60162,19.67211 -10.42903,-10.42904 -20.85807,-20.85807 -31.2871,-31.28711 6.90422,-6.88471 13.76725,-13.81168 20.69726,-20.66992 3.05789,-2.79162 7.23092,-4.28148 11.36524,-4.06445 z m -28.69141,83.93945 c -32.78965,32.75719 -65.5642,65.52973 -98.36328,98.27734 -2.15907,2.05957 -4.93749,3.34019 -7.81889,4.02293 -12.81949,3.65902 -25.63897,7.31805 -38.45846,10.97707 3.86799,-13.51156 7.69674,-27.03503 11.58919,-40.53916 0.78098,-2.32251 2.07431,-4.4998 3.93072,-6.12142 32.61055,-32.63527 65.2211,-65.27055 97.83166,-97.90582 10.42968,10.42968 20.85937,20.85937 31.28906,31.28906 z" />
</svg>