<svg viewBox="0 0 479 448">
  <path
     style="fill:{linecolour};stroke-width:0.99935;paint-order:markers stroke fill"
     d="M 64,0 C 28.700105,0 0,28.700105 0,64 v 320 c 0,35.29988 28.700105,64 64,64 h 250.66016 c -1.51953,-0.83379 -3.0059,-1.72953 -4.44141,-2.70703 -12.32107,-8.37465 -21.34079,-21.93165 -23.11328,-36.8418 -0.13478,-2.71555 -0.19761,-5.43368 -0.29102,-8.15039 L 64,400 C 55.200035,399.9881 48,392.79997 48,384 V 64 c 0,-8.799973 7.200027,-16 16,-16 h 16 v 104 c 0,13.29997 10.700036,24 24,24 h 182.8457 c 0.88339,-8.17822 3.16186,-16.24594 7.59766,-23.21094 C 300.4368,143.09638 309.56592,135.52243 320,130.99805 V 51.900391 l 0.80078,0.798828 74.59961,74.400391 -0.0996,0.0996 c 3,3 4.69922,7.10078 4.69922,11.30078 v 9.00195 4.77149 81.82617 c 15.13132,-0.0329 30.264,0.0733 45.39453,-0.12695 0.83371,-0.0306 1.67042,0.0125 2.50586,0.006 v -71.90625 -19.19922 -4.27344 c 0,-16.99994 -6.7012,-33.29886 -18.70117,-45.298829 l 0.10156,-0.101562 -74.5,-74.5 C 342.8008,6.6992644 326.49994,0 309.5,0 Z m 64,48 h 144 v 80 H 128 Z m 95.75195,162.48438 a 81.363998,81.363998 0 0 0 -81.36328,81.36328 81.363998,81.363998 0 0 0 81.36328,81.36328 81.363998,81.363998 0 0 0 58.96485,-25.98828 c -15.14583,1.9e-4 -30.29169,0.009 -45.4375,0.0273 -13.29561,0.60308 -26.93295,-3.22703 -37.48047,-11.46289 -5.40048,-4.19077 -9.83922,-9.4742 -13.27149,-15.35742 a 47.111664,47.111664 0 0 1 -9.88672,-28.58203 47.111664,47.111664 0 0 1 4.56055,-18.98828 c 1.97662,-6.37665 4.98498,-12.4232 9.125,-17.69141 8.39798,-10.89693 21.07697,-18.63852 34.81445,-20.27735 18.39261,-0.8783 36.81056,-0.77004 55.22071,-0.77343 a 81.363998,81.363998 0 0 0 -56.60938,-23.63281 z m 224.14844,136.38085 c -15.96025,0.41478 -31.9354,0.30495 -47.90039,0.34766 V 384 c 0,1.3876 -0.23597,2.70235 -0.57227,3.97656 10e-4,2.5462 0.003,5.09247 0.004,7.63867 0.75581,13.56904 -3.24598,27.49073 -11.68945,38.21094 -4.59283,5.89963 -10.48405,10.65297 -17.05274,14.17383 h 13.21094 c 35.29991,0 64,-28.70012 64,-64 z" />
  <path
     style="font-style:normal;font-variant:normal;font-weight:normal;font-stretch:normal;font-size:200px;font-family:'UD Digi Kyokasho NP-B';-inkscape-font-specification:'UD Digi Kyokasho NP-B';fill:{highlightcolour};stroke-width:1.82785;paint-order:markers stroke fill"
     d="m 340.51565,154.3712 c -11.3556,0.61408 -22.34008,8.70287 -25.18324,19.90114 -1.92011,8.76947 -0.68686,17.78519 -0.99834,26.67059 -0.028,20.35521 -0.0386,40.71044 -0.038,61.06567 -28.35062,0.35688 -56.71372,-0.28314 -85.05588,0.61519 -6.61796,0.47294 -12.6035,4.43147 -16.67143,9.52646 -4.40502,5.42375 -6.36248,12.52201 -6.05557,19.44663 0.28463,9.05651 4.36776,18.44376 12.24943,23.36181 4.85785,3.2231 10.75833,4.49712 16.53402,4.31328 19.85598,-0.11035 39.7134,-0.0322 59.57012,-0.0409 6.44552,0.005 12.89101,0.009 19.3365,0.0165 0.3098,27.05136 -0.2568,54.10986 0.47479,81.15647 0.0866,2.80596 -0.0258,5.8939 1.0709,8.633 3.38511,9.94286 13.15439,17.10868 23.56371,17.85573 8.7082,0.83034 18.03727,-1.75065 24.33843,-7.99816 5.1565,-5.13729 7.95167,-12.43436 7.76749,-19.69299 0.065,-7.74927 -0.10385,-15.49914 -0.0356,-23.24913 -0.0287,-18.86356 0.0148,-37.72714 0.0288,-56.59067 28.44373,-0.36336 56.89711,0.23284 85.33426,-0.63197 11.18877,-1.4626 20.37327,-11.2565 21.97696,-22.29605 1.18192,-7.38648 0.12762,-15.32564 -3.73076,-21.80822 -3.58545,-5.97451 -9.73766,-10.18198 -16.50952,-11.68256 -6.94277,-1.69408 -14.12295,-0.73091 -21.18072,-0.87078 -21.92271,0.12964 -43.84591,0.0108 -65.76886,0.0505 -0.39271,-28.30744 0.25351,-56.62734 -0.63949,-84.92684 -0.43054,-5.68288 -3.5041,-10.91336 -7.47436,-14.88243 -4.98524,-4.94807 -11.89353,-7.91205 -18.93586,-7.91505 -1.3213,-0.0691 -2.64533,-0.0634 -3.96761,-0.0273 z" />
</svg>
