<svg viewBox="0 0 490 512">
  <path
     style="fill:{linecolour}"
     d="m 0,64 c 0,-35.3 28.7,-64 64,-64 h 160 v 128 c 0,17.7 14.3,32 32,32 h 128 v 144 h -208 c -35.3,0 -64,28.7 -64,64 v 144 h -48 c -35.3,0 -64,-28.7 -64,-64 z m 384,64 h -128 V 0 Z" />
  <g
     aria-label="XLS"
     style="font-size:200px;font-family:'UD Digi Kyokasho NP-B';-inkscape-font-specification:'UD Digi Kyokasho NP-B';fill:{linecolour};fill-opacity:1;paint-order:markers stroke fill"
     transform="translate(1012.0013,485.16858)">
    <path
       style="font-style:normal;font-variant:normal;font-weight:normal;font-stretch:normal;font-size:200px;font-family:'UD Digi Kyokasho N-B';-inkscape-font-specification:'UD Digi Kyokasho N-B';fill:{highlightcolour};fill-opacity:1;stroke-width:0.969388;paint-order:markers stroke fill"
       d="m -568.40966,-132.9591 c -9.09945,0.10582 -18.37944,2.48022 -25.80744,7.88652 -7.16366,5.06393 -12.57427,12.62394 -14.79849,21.13237 -2.17131,7.867341 -2.20069,16.226623 -0.76435,24.226493 1.42816,7.464826 4.81971,14.571076 9.91354,20.231096 6.17189,7.103944 14.09116,12.424029 22.31003,16.879199 5.83405,3.389513 11.7254,6.987113 16.21832,12.107825 2.84634,3.423121 4.47163,7.880714 4.23176,12.349009 -0.0562,3.382251 -0.89828,7.102362 -3.63481,9.3426461 -2.89084,2.3036815 -6.83158,2.5631381 -10.36846,2.1548999 -3.3929,-0.4325503 -6.63741,-2.0306147 -8.91505,-4.603931 -2.28078,-2.607653 -3.76969,-5.891065 -6.53201,-8.076491 -3.75774,-3.345502 -9.13574,-4.635039 -14.03097,-3.569217 -6.52904,1.299551 -11.87855,6.960183 -12.88518,13.5283938 -0.8509,4.9504778 0.78502,9.97546282 3.23555,14.2384026 3.14315,5.2436016 7.39114,9.8434806 12.42217,13.3252886 5.98635,4.159138 13.00337,6.707706 20.20238,7.725534 6.98696,1.036827 14.17198,0.985731 21.10317,-0.425203 8.22922,-1.731578 15.99793,-5.791528 21.91226,-11.799278 6.04582,-5.9800648 10.20704,-13.83601996 11.69668,-22.2130887 1.48458,-7.8379443 1.16749,-16.0113153 -0.84306,-23.7265643 -2.55804,-9.450909 -8.15289,-18.010523 -15.66697,-24.271167 -6.31577,-5.385034 -13.43939,-9.700437 -20.58698,-13.873698 -4.18695,-2.53014 -8.31971,-5.247226 -11.83793,-8.671103 -1.74481,-1.742018 -3.44154,-3.72905 -3.91961,-6.223914 -0.62595,-3.271954 -0.11781,-6.670665 0.81155,-9.835725 0.67758,-2.285311 2.19492,-4.659264 4.68983,-5.167077 3.00931,-0.75993 6.52516,-0.22401 8.76039,2.066662 1.88573,1.734633 2.68021,4.280935 4.44558,6.116499 3.62261,4.127865 9.60252,5.61033 14.87593,4.502349 5.7907,-1.188527 10.93741,-5.474189 12.91286,-11.078314 1.74857,-5.159906 0.62167,-10.929806 -2.0477,-15.568256 -2.8178,-4.84424 -7.00422,-8.78666 -11.64347,-11.87273 -7.46323,-4.95177 -16.57733,-7.01966 -25.45952,-6.83743 z m -139.51613,0.94288 c -5.59189,0.09 -11.38424,2.43674 -14.70933,7.07729 -2.1809,2.97924 -2.69402,6.80743 -2.5011,10.40728 0.002,38.201561 -0.015,76.403736 0.0311,114.6049033 0.15471,5.8319903 1.8046,11.8939397 5.84273,16.2595957 4.10487,4.487033 10.24425,6.59799 16.20679,6.882884 4.86159,0.228581 9.7301,0.03112 14.59478,0.101495 12.0087,-0.01115 24.01937,0.04178 36.0268,-0.054 6.31358,-0.440403 11.78408,-5.470797 13.30052,-11.529004 1.31944,-4.9881677 0.86126,-10.5786933 -1.80838,-15.0546172 -2.23091,-3.7716929 -6.1296,-6.6022366 -10.51896,-7.1613498 -2.77252,-0.376607 -5.57734,-0.07978 -8.36405,-0.175401 -10.06712,0.0039 -20.13423,6.2e-4 -30.20134,-0.01154 -9.7e-4,-35.682205 0.0135,-71.365591 -0.0299,-107.047496 -0.22736,-5.2426 -3.7327,-10.02729 -8.42378,-12.24586 -2.90886,-1.47188 -6.19674,-2.11947 -9.44584,-2.05427 z m -124.31457,0.002 c -5.79075,0.12213 -11.53206,3.14669 -14.6866,8.03911 -2.88085,4.68352 -2.81776,10.86727 -0.18146,15.64335 8.09012,17.202642 16.18024,34.405276 24.27036,51.607909 -9.26701,19.572895 -18.57284,39.126362 -27.78967,58.7209306 -2.23837,5.3096165 -1.87928,11.8845364 1.71262,16.5255174 3.45084,4.67175 9.41627,7.19051 15.16955,6.755778 5.27227,-0.297495 10.28153,-3.195683 13.23836,-7.560292 2.50708,-3.556431 3.87573,-7.7319996 5.75065,-11.6241392 3.59771,-8.022932 7.19543,-16.0458642 10.79315,-24.0688058 5.02612,11.014675 9.98193,22.0626682 15.09972,33.034109 2.4752,4.788581 6.90221,8.78839 12.28736,9.855608 6.84705,1.491849 14.60073,-1.286988 18.496,-7.215491 3.24575,-5.115186 3.04311,-11.8956257 0.30293,-17.18012535 -9.08474,-18.92232765 -18.2574,-37.80311765 -27.38141,-56.70728065 8.44609,-17.956089 16.94408,-35.885493 25.32579,-53.870718 2.16381,-5.45469 1.23046,-12.24658 -2.98444,-16.47993 -5.43016,-5.57688 -14.695,-7.13546 -21.48998,-3.1892 -4.00015,2.29053 -6.56813,6.36075 -8.27787,10.52801 -3.79143,8.25928 -7.58287,16.51855 -11.37431,24.777839 -4.26876,-9.417419 -8.46463,-18.869909 -12.82663,-28.243549 -2.45131,-4.72201 -7.08098,-8.44499 -12.43426,-9.14414 -0.99935,-0.14974 -2.00954,-0.21449 -3.01986,-0.20449 z" />
  </g>
</svg>
