<svg viewBox="0 0 512 512">
  <path
     d="m 464,256 a 208,208 0 1 0 -416,0 208,208 0 1 0 416,0 z M 0,256 a 256,256 0 1 1 512,0 256,256 0 1 1 -512,0 z"
     style="fill:{highlightcolour}" />
  <path
     d="m 256.78051,128 c -17.67695,-0.005 -32.00978,14.32306 -32.00978,32 0,17.67694 14.33283,32.00541 32.00978,32 17.67695,0.005 32.00978,-14.32306 32.00978,-32 0,-17.67694 -14.33283,-32.00541 -32.00978,-32 z m -40,96 c -13.29999,0 -24,10.70002 -24,24 0,13.29999 10.70001,24 24,24 h 24 v 64 h -24 c -13.29999,0 -24,10.70002 -24,24 0,13.29999 10.70001,24 24,24 h 80 c 34.24848,-3.53469 25.25258,-47.23787 0,-48 h -8 v -88 c 0,-13.29998 -10.70002,-24 -24,-24 z"
     style="fill:{linecolour}" />
</svg>
