<svg viewBox="0 0 448 512">
  <path
     d="m 0,192 h 448 v 272 c 0,26.5 -21.5,48 -48,48 H 48 C 21.5,512 0,490.5 0,464 Z m 58,78 v 38 c 0,8.8 7.2,16 16,16 h 44 c 8.8,0 16,-7.2 16,-16 v -38 c 0,-8.8 -7.2,-16 -16,-16 H 74 c -8.8,0 -16,7.2 -16,16 z m 128,0 v 38 c 0,8.8 7.2,16 16,16 h 44 c 8.8,0 16,-7.2 16,-16 v -38 c 0,-8.8 -7.2,-16 -16,-16 h -44 c -8.8,0 -16,7.2 -16,16 z m 144,-16 c -8.8,0 -16,7.2 -16,16 v 38 c 0,8.8 7.2,16 16,16 h 44 c 8.8,0 16,-7.2 16,-16 v -38 c 0,-8.8 -7.2,-16 -16,-16 z M 58,396 v 38 c 0,8.8 7.2,16 16,16 h 44 c 8.8,0 16,-7.2 16,-16 v -38 c 0,-8.8 -7.2,-16 -16,-16 H 74 c -8.8,0 -16,7.2 -16,16 z m 144,-16 c -8.8,0 -16,7.2 -16,16 v 38 c 0,8.8 7.2,16 16,16 h 44 c 8.8,0 16,-7.2 16,-16 v -38 c 0,-8.8 -7.2,-16 -16,-16 z m 112,16 v 38 c 0,8.8 7.2,16 16,16 h 44 c 8.8,0 16,-7.2 16,-16 v -38 c 0,-8.8 -7.2,-16 -16,-16 h -44 c -8.8,0 -16,7.2 -16,16 z"
     style="fill:{linecolour}" />
  <path
     d="m 128,0 c 17.7,0 32,14.3 32,32 V 64 H 288 V 32 c 0,-17.7 14.3,-32 32,-32 17.7,0 32,14.3 32,32 v 32 h 48 c 26.5,0 48,21.5 48,48 v 48 H 0 V 112 C 0,85.5 21.5,64 48,64 H 96 V 32 C 96,14.3 110.3,0 128,0 Z"
     style="fill:{highlightcolour}" />
</svg>
