<?xml version="1.0" encoding="UTF-8" standalone="no"?>
<svg
   viewBox="0 0 512 512"
   version="1.1"
   id="svg6"
   sodipodi:docname="indent.svg"
   inkscape:version="1.2.2 (732a01da63, 2022-12-09)"
   xml:space="preserve"
   xmlns:inkscape="http://www.inkscape.org/namespaces/inkscape"
   xmlns:sodipodi="http://sodipodi.sourceforge.net/DTD/sodipodi-0.dtd"
   xmlns="http://www.w3.org/2000/svg"
   xmlns:svg="http://www.w3.org/2000/svg"><defs
     id="defs10" /><sodipodi:namedview
     id="namedview8"
     pagecolor="#ffffff"
     bordercolor="#000000"
     borderopacity="0.25"
     inkscape:showpageshadow="2"
     inkscape:pageopacity="0.0"
     inkscape:pagecheckerboard="0"
     inkscape:deskcolor="#d1d1d1"
     showgrid="false"
     inkscape:zoom="0.70710678"
     inkscape:cx="193.74726"
     inkscape:cy="352.13918"
     inkscape:window-width="1920"
     inkscape:window-height="986"
     inkscape:window-x="-11"
     inkscape:window-y="-11"
     inkscape:window-maximized="1"
     inkscape:current-layer="svg6" /><path
     d="M 41.8,18 H 476 c 17.7,0 30,6.3 30,24 0,17.7 -12.3,24 -30,24 H 41.8 c -17.7,0 -30,-6.3 -30,-24 0,-17.7 12.3,-24 30,-24 z M 258,338 h 218 c 17.7,0 30,6.3 30,24 0,17.7 -12.3,24 -30,24 H 258 c -17.7,0 -30,-6.3 -30,-24 0,-17.7 12.3,-24 30,-24 z M 41.8,444 H 476 c 17.7,0 30,6.3 30,24 0,17.7 -12.3,24 -30,24 H 41.8 c -17.7,0 -30,-6.3 -30,-24 0,-17.7 12.3,-24 30,-24 z M 258,228.5 h 218 c 17.7,0 30,6.3 30,24 0,17.7 -12.3,24 -30,24 H 258 c -17.7,0 -30,-6.3 -30,-24 0,-17.7 12.3,-24 30,-24 z m 0,-105.813 h 218 c 17.7,0 30,6.3 30,24 0,17.7 -12.3,24 -30,24 H 258 c -17.7,0 -30,-6.3 -30,-24 0,-17.7 12.3,-24 30,-24 z"
     id="path2"
     sodipodi:nodetypes="sssssssssssssssssssssssssssssssssss" /><path
     d="M 199.41496,271.2173 76.227281,366.98969 c -12.681088,9.90332 -31.159239,0.84541 -31.159239,-15.2173 V 160.22761 c 0,-16.06271 18.478151,-25.12063 31.159239,-15.21731 l 123.066909,95.77239 c 9.90332,7.72943 9.90332,22.82596 0,30.55539 z"
     id="path1796"
     style="fill:#3b9adc;fill-opacity:1;stroke-width:1.20772" /></svg>
