<svg viewBox="0 0 512 512">
  <path
   	 d="M 41.8,18 H 476 c 17.7,0 30,6.3 30,24 0,17.7 -12.3,24 -30,24 H 41.8 c -17.7,0 -30,-6.3 -30,-24 0,-17.7 12.3,-24 30,-24 z M 258,338 h 218 c 17.7,0 30,6.3 30,24 0,17.7 -12.3,24 -30,24 H 258 c -17.7,0 -30,-6.3 -30,-24 0,-17.7 12.3,-24 30,-24 z M 41.8,444 H 476 c 17.7,0 30,6.3 30,24 0,17.7 -12.3,24 -30,24 H 41.8 c -17.7,0 -30,-6.3 -30,-24 0,-17.7 12.3,-24 30,-24 z M 258,228.5 h 218 c 17.7,0 30,6.3 30,24 0,17.7 -12.3,24 -30,24 H 258 c -17.7,0 -30,-6.3 -30,-24 0,-17.7 12.3,-24 30,-24 z m 0,-105.813 h 218 c 17.7,0 30,6.3 30,24 0,17.7 -12.3,24 -30,24 H 258 c -17.7,0 -30,-6.3 -30,-24 0,-17.7 12.3,-24 30,-24 z"
   	 style="fill:{linecolour}" />
  <path
     d="M 199.41496,271.2173 76.227281,366.98969 c -12.681088,9.90332 -31.159239,0.84541 -31.159239,-15.2173 V 160.22761 c 0,-16.06271 18.478151,-25.12063 31.159239,-15.21731 l 123.066909,95.77239 c 9.90332,7.72943 9.90332,22.82596 0,30.55539 z"
     style="fill:{highlightcolour};stroke-width:1.20772"/>
</svg>
