<svg viewBox="0 0 512 512" />
  <path
     d="m 143.36276,197.87085 c 8.78608,0 15.85459,7.06852 15.85459,15.8546 v 84.55791 c 0,8.78608 -7.06851,15.85461 -15.85459,15.85461 -8.7861,0 -15.85462,-7.06853 -15.85462,-15.85461 v -84.55791 c 0,-8.78608 7.06852,-15.8546 15.85462,-15.8546 z"
     style="fill:{highlightcolour};stroke-width:0.660609" />
  <path
     d="m 174.23883,90.852267 c -21.13654,0.0044 -42.27347,-0.01559 -63.40976,0.01895 -6.01598,0.228256 -11.755048,3.913802 -14.459998,9.294343 -2.53214,4.91049 -2.53391,11.05621 0.1089,15.92402 2.34666,4.43918 6.711188,7.77464 11.651478,8.74679 2.00858,0.45086 4.07339,0.38454 6.11657,0.36754 3.98085,0 7.96171,0 11.94256,0 0,10.02611 0,20.05222 0,30.07832 -4.0868,0.60595 -8.1614,1.29654 -12.15932,2.1986 -3.1939,0.71258 -6.31252,1.5305 -9.45552,2.49033 -1.72583,0.52047 -3.57287,1.12318 -5.274098,1.72159 -3.22349,1.12485 -6.39676,2.37412 -9.49447,3.73559 -2.37785,1.03888 -4.79066,2.19484 -7.05934,3.34733 -4.38703,2.24214 -8.71373,4.7697 -12.78509,7.45637 -4.11958,2.72013 -8.14763,5.71765 -11.90645,8.8421 -15.3056,12.7388 -27.73662,28.91913 -36.03048,47.02728 -1.45803,3.16602 -2.8142,6.4693 -3.99568,9.69345 -0.79081,2.16759 -1.52292,4.35628 -2.20763,6.55962 -0.17428,0.5965 -0.4207,1.38803 -0.59523,1.99204 -2.58501,8.86197 -4.21898,17.99649 -4.92059,27.19991 -0.0366,0.57919 -0.095,1.4146 -0.1353,2.01552 -0.2388396,3.9798 -0.3063996,7.96013 -0.1902996,11.9686 0.0501,1.7452 0.1340796,3.64218 0.2591696,5.38755 0.18571,2.75886 0.46355,5.51968 0.81304,8.22355 0.34452,2.63717 0.7563,5.21644 1.26098,7.84764 0.74566,3.89621 1.70185,7.89586 2.8102,11.72544 3.2343,11.27769 7.99889,22.10981 14.08052,32.14086 0.65462,1.07631 1.39223,2.2584 2.10863,3.35756 2.02654,3.13676 4.19444,6.18131 6.47798,9.13594 0.62317,0.80219 1.34919,1.71463 2.02489,2.54867 4.07084,5.00468 8.51302,9.71433 13.28037,14.10311 1.12292,1.02874 2.36562,2.13263 3.56501,3.15776 13.593,11.64715 29.55368,20.51765 46.634408,25.87781 3.83104,1.20618 7.71797,2.23254 11.67444,3.09255 1.15461,0.24284 2.52882,0.52876 3.71762,0.74633 6.5435,1.22247 13.18361,1.9566 19.86267,2.1918 13.30656,0.47252 26.8009,-1.01921 39.69676,-4.51803 18.03096,-4.85233 34.99333,-13.58938 49.44835,-25.40512 7.6832,-6.27133 14.66737,-13.39872 20.78447,-21.20524 0.66698,-0.85309 1.41507,-1.82757 2.06182,-2.70436 3.85401,-5.18323 7.32568,-10.64942 10.39556,-16.332 0.29506,-0.55613 0.67645,-1.27422 1.00052,-1.89571 0.89425,-1.73274 1.79623,-3.5732 2.58767,-5.28583 2.81707,-6.09582 5.17006,-12.40469 7.04348,-18.85314 0.21587,-0.77594 0.48433,-1.71019 0.70498,-2.55073 1.21025,-4.48981 2.18185,-9.1209 2.90256,-13.66645 0.90006,-5.72722 1.42365,-11.51227 1.58184,-17.30742 0.0646,-2.58345 0.0653,-5.29102 -0.0195,-7.92127 -0.0548,-1.73319 -0.14217,-3.45155 -0.26297,-5.14061 -0.13134,-1.89206 -0.29434,-3.68858 -0.50454,-5.5824 -0.18477,-1.67375 -0.39299,-3.23736 -0.6385,-4.90566 -1.31169,-8.79401 -3.51276,-17.4543 -6.55972,-25.80733 -0.2647,-0.70648 -0.57979,-1.5739 -0.87969,-2.33745 -3.36732,-8.69718 -7.64387,-17.04591 -12.76858,-24.83912 -1.15129,-1.23214 -0.90491,-3.37783 0.40953,-4.39846 5.31698,-5.26541 10.60039,-10.56455 15.87293,-15.87369 1.56609,-1.48255 2.87307,-3.2401 3.76814,-5.20622 2.02319,-4.29637 2.16786,-9.43608 0.32459,-13.81955 -1.84688,-4.58863 -5.78657,-8.26812 -10.49739,-9.7832 -4.5502,-1.53096 -9.72958,-1.02577 -13.89251,1.36929 -1.71896,0.93775 -3.18477,2.25402 -4.53638,3.65582 -5.30755,5.31336 -10.62115,10.62121 -15.93143,15.93242 -2.76661,-2.28753 -5.5707,-4.53088 -8.46534,-6.65512 -0.88731,-0.65297 -1.90067,-1.37499 -2.84885,-2.03818 -12.89006,-8.95361 -27.36918,-15.62021 -42.57195,-19.52974 -3.89074,-1.0033 -7.77804,-1.82664 -11.75688,-2.48176 -1.11327,-0.20621 -2.24622,-0.31733 -3.35186,-0.5438 -0.40687,-0.12193 -0.73564,-0.40841 -1.10575,-0.60771 0,-9.87429 0,-19.74858 0,-29.62287 5.33328,-0.0367 10.6688,0.0651 16.00054,-0.0636 5.99049,-0.45276 11.5784,-4.33409 14.08563,-9.79561 2.33255,-4.95322 2.1532,-11.0313 -0.59706,-15.783625 -2.49679,-4.443384 -7.05408,-7.682731 -12.10246,-8.469358 -1.21754,-0.204504 -2.45446,-0.277961 -3.68807,-0.241975 z m -30.89507,97.770073 c 19.3392,-0.0239 38.64726,5.77491 54.75029,16.48978 15.0161,9.93256 27.24355,24.03938 34.89459,40.3408 7.21282,15.28719 10.45272,32.44158 9.19756,49.30502 -1.28052,18.41162 -7.86205,36.41574 -18.75811,51.31246 -9.49517,13.05843 -22.24409,23.7252 -36.77749,30.75967 -14.88087,7.25598 -31.60557,10.66805 -48.13975,9.83884 -15.48093,-0.73856 -30.76203,-5.20066 -44.218728,-12.88728 -15.34003,-8.71376 -28.25105,-21.63047 -36.97692,-36.96163 -8.60308,-15.02969 -13.1468,-32.35009 -13.02405,-49.66788 0.0715,-16.30837 4.27191,-32.57477 12.09732,-46.8826 7.95703,-14.63591 19.69273,-27.18523 33.7511,-36.1206 15.301198,-9.77674 33.339058,-15.20333 51.494458,-15.49596 0.56984,-0.0138 1.13981,-0.0213 1.70973,-0.0307 z"
     style="fill:{linecolour};stroke-width:0.660609" />
  <path
     d="m 409.51198,289.03174 c 5.23585,-5.23585 5.23585,-13.73888 0,-18.97473 l -53.61514,-53.61514 c -3.85358,-3.85358 -9.59208,-4.98453 -14.6185,-2.89019 -5.02641,2.09434 -8.29359,6.95321 -8.29359,12.3985 v 107.23027 c 0,5.4034 3.26718,10.30416 8.29359,12.3985 5.02642,2.09434 10.76492,0.92151 14.6185,-2.89019 l 53.61514,-53.61513 z"
     style="fill:{highlightcolour};stroke-width:0.418868" />
</svg>
