<svg viewBox="0 0 464 528">
  <path
     style="fill:#000000"
     d="M 134.62745,0.01916557 C 122.49943,0.36930687 110.71357,6.6297447 103.6271,16.477844 c -5.355823,7.355599 -8.017084,16.565304 -7.622703,25.640541 0,7.296354 0,14.592708 0,21.889062 -14.290541,0.0122 -28.582703,-0.05616 -42.87213,0.07911 C 37.30832,64.804139 21.992028,72.703743 12.187076,85.137642 4.121757,95.244041 -0.29880871,108.20449 0.01570849,121.13948 c -0.0129603,18.28932 -0.0147235977,36.57865 -0.0113111,54.86797 154.66667261,0 309.33333261,0 464.00000261,0 -0.0137,-19.55482 0.0557,-39.11084 -0.0677,-58.66486 -0.66156,-15.86204 -8.53741,-31.240999 -20.98334,-41.089275 -10.09173,-8.083217 -23.0452,-12.529451 -35.98099,-12.234543 -12.98932,-0.0091 -25.97865,-0.01364 -38.96797,-0.01132 -0.0279,-8.984151 0.0861,-17.971805 -0.11193,-26.953483 C 367.03897,24.02537 359.27526,11.682791 347.89312,5.2807045 337.81739,-0.51103743 325.16789,-1.6433628 314.26558,2.4336613 304.22761,6.0746915 295.76259,13.888221 291.47615,23.684737 c -2.64656,5.926774 -3.75482,12.481979 -3.47175,18.953569 0,7.123047 0,14.246094 0,21.369141 -37.33333,0 -74.66667,0 -112,0 -0.028,-8.984145 0.0862,-17.971817 -0.11204,-26.953474 C 175.03057,23.89433 167.11641,11.43189 155.54684,5.0903876 149.20505,1.5438879 141.88628,-0.20521103 134.62745,0.01916557 Z M 0.01025679,333.01917 c 0.010177,47.05613 0.00689,94.11275 0.04961,141.16856 0.575672,17.96666 10.50002921,35.35417 25.71137121,44.94552 6.497971,4.16937 13.866512,6.9616 21.487065,8.18865 0.409408,0.0541 1.044076,0.16356 1.509492,0.21687 1.17593,0.15787 2.500405,0.28508 3.783477,0.37102 0.415323,0.0149 1.055625,0.0628 1.525118,0.0712 7.170964,0.0686 14.343808,-0.0135 21.515507,0.0108 110.963143,0.0132 221.926343,0.0174 332.889443,-0.0251 5.44782,0.0315 10.87903,-0.86043 16.07775,-2.46905 0.33022,-0.11784 1.096,-0.35153 1.59278,-0.52782 12.19775,-4.20046 22.93413,-12.6593 29.60778,-23.73017 4.63374,-7.5657 7.42643,-16.24483 8.10022,-25.08966 0.061,-0.8384 0.12374,-1.95768 0.14127,-2.90907 -0.0189,-50.51503 0.007,-101.03101 0.003,-151.5464 0.004,-43.229 1.4e-4,-86.45803 2.6e-4,-129.68707 -154.66667,0 -309.33333,0 -464.00000261,0 0.00195,47.00391 0.00391,94.00781 0.0058594,141.01172 z M 82.254397,269.98401 c 14.960243,0.0534 29.920913,-0.0322 44.880863,0.0957 4.15463,0.5542 7.3775,4.75479 6.84781,8.91054 -6.1e-4,12.72521 0.10678,25.45385 -0.0924,38.17673 -0.48995,4.10673 -4.61779,7.22635 -8.68781,6.84858 -11.80912,-0.0562 -23.61881,0.0322 -35.428089,-0.033 -3.04731,-0.0345 -6.102565,-4e-5 -9.144489,-0.1218 -4.144085,-0.60255 -7.166091,-4.91731 -6.608391,-9.01389 0.01143,-12.70582 -0.107942,-25.41716 0.10871,-38.11931 0.542222,-3.85717 4.261664,-6.85529 8.123816,-6.74358 z m 128.000003,0 c 14.96024,0.0534 29.92091,-0.0322 44.88086,0.0957 4.15463,0.5542 7.3775,4.75479 6.84781,8.91054 -6.1e-4,12.72521 0.10678,25.45385 -0.0924,38.17673 -0.48995,4.10673 -4.61779,7.22635 -8.68781,6.84858 -11.80912,-0.0562 -23.61881,0.0322 -35.42809,-0.033 -3.04731,-0.0345 -6.10256,-4e-5 -9.14448,-0.1218 -4.14409,-0.60255 -7.1661,-4.91731 -6.6084,-9.01389 0.0114,-12.70582 -0.10794,-25.41716 0.10871,-38.11931 0.54223,-3.85717 4.26167,-6.85529 8.12382,-6.74358 z m 128,0 c 14.96024,0.0534 29.92091,-0.0322 44.88086,0.0957 4.15463,0.5542 7.3775,4.75479 6.84781,8.91054 -6.1e-4,12.72521 0.10678,25.45385 -0.0924,38.17673 -0.48995,4.10673 -4.61779,7.22635 -8.68781,6.84858 -11.80912,-0.0562 -23.61881,0.0322 -35.42809,-0.033 -3.04731,-0.0345 -6.10256,-4e-5 -9.14448,-0.1218 -4.14409,-0.60255 -7.1661,-4.91731 -6.6084,-9.01389 0.0114,-12.70582 -0.10794,-25.41716 0.10871,-38.11931 0.54223,-3.85717 4.26167,-6.85529 8.12382,-6.74358 z m -256.000003,126 c 14.960243,0.0534 29.920913,-0.0322 44.880863,0.0957 4.15463,0.5542 7.3775,4.75479 6.84781,8.91054 -6.1e-4,12.72521 0.10678,25.45385 -0.0924,38.17673 -0.48995,4.10673 -4.61779,7.22635 -8.68781,6.84858 -11.80912,-0.0562 -23.61881,0.0322 -35.428089,-0.033 -3.04731,-0.0345 -6.102565,-4e-5 -9.144489,-0.1218 -4.144085,-0.60255 -7.166091,-4.91731 -6.608391,-9.01389 0.01143,-12.70582 -0.107942,-25.41716 0.10871,-38.11931 0.542222,-3.85717 4.261664,-6.85529 8.123816,-6.74358 z m 128.000003,0 c 14.96024,0.0534 29.92091,-0.0322 44.88086,0.0957 4.15463,0.5542 7.3775,4.75479 6.84781,8.91054 -6.1e-4,12.72521 0.10678,25.45385 -0.0924,38.17673 -0.48995,4.10673 -4.61779,7.22635 -8.68781,6.84858 -11.80912,-0.0562 -23.61881,0.0322 -35.42809,-0.033 -3.04731,-0.0345 -6.10256,-4e-5 -9.14448,-0.1218 -4.14409,-0.60255 -7.1661,-4.91731 -6.6084,-9.01389 0.0114,-12.70582 -0.10794,-25.41716 0.10871,-38.11931 0.54223,-3.85717 4.26167,-6.85529 8.12382,-6.74358 z m 128,0 c 14.96024,0.0534 29.92091,-0.0322 44.88086,0.0957 4.15463,0.5542 7.3775,4.75479 6.84781,8.91054 -6.1e-4,12.72521 0.10678,25.45385 -0.0924,38.17673 -0.48995,4.10673 -4.61779,7.22635 -8.68781,6.84858 -11.80912,-0.0562 -23.61881,0.0322 -35.42809,-0.033 -3.04731,-0.0345 -6.10256,-4e-5 -9.14448,-0.1218 -4.14409,-0.60255 -7.1661,-4.91731 -6.6084,-9.01389 0.0114,-12.70582 -0.10794,-25.41716 0.10871,-38.11931 0.54223,-3.85717 4.26167,-6.85529 8.12382,-6.74358 z" />
  <path
     d="M 8.0058454,200.46689 H 456.00584 v 272 c 0,26.5 -21.5,48 -48,48 H 56.005845 c -26.5,0 -47.9999996,-21.5 -47.9999996,-48 z m 57.9999996,78 v 38 c 0,8.8 7.2,16 16,16 h 44.000005 c 8.8,0 16,-7.2 16,-16 v -38 c 0,-8.8 -7.2,-16 -16,-16 H 82.005845 c -8.8,0 -16,7.2 -16,16 z m 128.000005,0 v 38 c 0,8.8 7.2,16 16,16 h 44 c 8.8,0 16,-7.2 16,-16 v -38 c 0,-8.8 -7.2,-16 -16,-16 h -44 c -8.8,0 -16,7.2 -16,16 z m 143.99999,-16 c -8.8,0 -16,7.2 -16,16 v 38 c 0,8.8 7.2,16 16,16 h 44 c 8.8,0 16,-7.2 16,-16 v -38 c 0,-8.8 -7.2,-16 -16,-16 z m -271.999995,142 v 38 c 0,8.8 7.2,16 16,16 h 44.000005 c 8.8,0 16,-7.2 16,-16 v -38 c 0,-8.8 -7.2,-16 -16,-16 H 82.005845 c -8.8,0 -16,7.2 -16,16 z m 144.000005,-16 c -8.8,0 -16,7.2 -16,16 v 38 c 0,8.8 7.2,16 16,16 h 44 c 8.8,0 16,-7.2 16,-16 v -38 c 0,-8.8 -7.2,-16 -16,-16 z m 111.99999,16 v 38 c 0,8.8 7.2,16 16,16 h 44 c 8.8,0 16,-7.2 16,-16 v -38 c 0,-8.8 -7.2,-16 -16,-16 h -44 c -8.8,0 -16,7.2 -16,16 z"
     style="fill:#4d4d4d" />
  <path
     d="m 136.0044,8.0074468 c 17.7,0 32,14.3000002 32,32.0000002 v 32 h 128 v -32 c 0,-17.7 14.3,-32.0000002 32,-32.0000002 17.7,0 32,14.3000002 32,32.0000002 v 32 h 48 c 26.5,0 48,21.5 48,48.000003 v 48 H 8.0043974 v -48 c 0,-26.500003 21.4999996,-48.000003 47.9999996,-48.000003 H 104.0044 v -32 c 0,-17.7 14.3,-32.0000002 32,-32.0000002 z"
     style="fill:#c83737" />
</svg>
