<svg viewBox="0 0 512 512">
   <path
      style="display:inline;stroke-width:0.242079;paint-order:markers stroke fill;fill:{linecolour}"
      transform="rotate(45)"
      d="M 16.836799,-12.5 H 707.24054 c 5.41016,0 9.76563,4.3554692 9.76563,9.765626 v 5.468748 c 0,5.4101568 -4.35547,9.765626 -9.76563,9.765626 H 16.836799 C 11.426642,12.5 7.0711732,8.1445308 7.0711732,2.734374 V -2.734374 C 7.0711732,-8.1445308 11.426642,-12.5 16.836799,-12.5 Z M 349.53867,345.20187 v -690.40374 c 0,-5.41016 4.35546,-9.76563 9.76562,-9.76563 h 5.46875 c 5.41016,0 9.76563,4.35547 9.76563,9.76563 v 690.40374 c 0,5.41016 -4.35547,9.76563 -9.76563,9.76563 h -5.46875 c -5.41016,0 -9.76562,-4.35547 -9.76562,-9.76563 z" />
</svg>
