<svg viewBox="0 0 512 512">
   <path
      style="display:inline;stroke-width:0.257098;paint-order:markers stroke fill;fill:{linecolour}"
      d="M 434.78963,0.00794387 C 313.72059,0.05157697 192.65119,0.10604547 71.582396,0.18445867 47.264221,1.3696466 23.861486,15.157037 11.276058,36.041514 3.3159635,48.990576 -0.48808247,64.346747 0.05005953,79.509367 c 0.03345,116.059623 0.06875,232.119263 0.149226,348.178853 0.03815,4.63877 -0.04754,9.2825 0.131546,13.91778 1.52089597,24.71513 16.20512247,48.2188 37.80435747,60.34172 12.616405,7.20074 27.295442,10.50548 41.777404,10.00247 114.608117,-0.0367 229.216297,-0.0316 343.824357,-0.16189 5.89586,-0.0308 11.79535,0.0125 17.68848,-0.147 23.86455,-1.36786 46.5779,-15.08283 59.09721,-35.41739 7.3272,-11.80696 11.14724,-25.64857 11.45716,-39.51092 0.069,-3.68628 -0.0647,-7.37279 -0.0187,-11.05981 -0.07,-117.62337 -0.0668,-235.24714 -0.20014,-352.87023 C 511.07647,48.466793 497.60555,24.942214 477.06028,11.949538 464.53003,3.9738434 449.63682,-0.20779223 434.78966,0.00794387 Z M 82.044484,24.114643 c 117.240136,0.04489 234.480246,0.0898 351.720376,0.134756 5.7536,0.387995 11.39512,1.623317 16.78932,3.682557 10.45921,3.968989 19.87093,11.017593 26.41502,20.216947 6.48605,9.061528 10.24238,20.066011 10.7316,31.088171 0.2032,5.268207 0.011,10.541874 0.0705,15.812492 0.0236,91.715294 -0.0225,183.430604 -0.0882,275.145864 -0.0277,21.14395 -0.0312,42.28843 -0.12227,63.43198 -0.11392,4.35659 -0.93966,8.56895 -2.14035,12.74071 -4.01719,13.60136 -13.11253,25.70811 -25.29743,33.02855 -9.00541,5.5054 -19.59163,8.38556 -30.08317,8.4027 -37.26689,-0.0391 -74.53385,9.4e-4 -111.80077,-0.0111 -79.48012,-0.006 -158.96051,-0.0224 -238.440416,-0.10478 -11.397959,-0.29456 -22.594035,-4.15601 -31.808784,-10.84602 -10.147028,-7.40284 -17.9123,-18.21791 -21.43848,-30.34782 -1.940538,-6.58552 -2.498486,-13.46142 -2.358834,-20.33192 0.01963,-107.30154 0.04246,-214.60311 0.118014,-321.90462 0.03061,-8.678851 0.01224,-17.35894 0.116557,-26.036856 0.388078,-9.534086 3.512528,-18.804109 8.521715,-26.895942 5.436607,-8.741334 13.224906,-16.083552 22.375722,-20.720818 8.270258,-4.243683 17.502069,-6.410033 26.719772,-6.484793 z" />
</svg>
