<svg viewBox="0 0 512 512">
   <path
      style="display:inline;stroke-width:0.264799;paint-order:markers stroke fill;fill:{linecolour}"
      d="m 298.22154,134.02242 c -63.70713,-0.0147 -106.23826,-0.0169 -169.94537,0.0236 -18.15393,0.0205 -36.30926,-0.0125 -54.46225,0.09 -22.631,1.10578 -44.57095,12.66701 -58.09769,30.87409 -10.6929006,14.10348 -16.24848056,31.94917 -15.67602056,49.62287 -0.0225,78.80061 -0.017,136.42531 0.0619,215.22587 0.0101,4.97721 -0.0816,9.97895 0.67494,14.91412 2.83017996,20.5799 14.19885056,39.92232 31.06068056,52.11214 13.96997,10.31082 31.47736,15.63026 48.81509,15.0755 76.89211,0.0291 132.60824,0.008 209.50032,-0.055 4.94278,-0.0327 9.88877,0.0213 14.82941,-0.10493 22.30243,-1.33044 43.8497,-12.78957 57.2183,-30.71906 10.76649,-14.1465 16.34839,-32.07458 15.75644,-49.82545 0.0237,-78.81482 0.015,-136.45372 -0.0634,-215.26849 -0.003,-4.93799 0.0771,-9.90017 -0.67726,-14.79559 -2.85776,-20.80714 -14.46601,-40.33927 -31.61952,-52.51147 -13.64552,-9.84461 -30.55673,-15.06788 -47.37556,-14.65823 z m -218.80519,24.8232 c 81.09163,0.0133 141.00766,-0.01 222.09902,0.0953 9.0896,0.41535 18.06461,3.25051 25.78735,7.97579 11.36657,6.93938 20.02523,18.33154 23.68396,31.14738 1.57866,5.4943 2.22812,11.22835 2.11521,16.93753 0.0467,16.87815 0.005,33.7565 0.0205,50.63474 -0.002,63.70766 0.0278,106.24017 -0.0882,169.94726 -0.42928,9.50523 -3.55219,18.99387 -8.77067,26.97306 -6.36483,9.81928 -16.11204,17.46626 -27.1621,21.40378 -5.36268,1.94909 -11.12765,2.97419 -16.83099,3.09928 -5.85343,0.17106 -11.71002,-0.004 -17.56482,0.0657 -75.5738,-0.0102 -129.97204,0.0237 -205.54552,-0.0783 -5.62531,-0.1751 -11.19872,-1.27457 -16.42625,-3.16207 -9.32775,-3.31736 -17.6681,-9.2933 -23.84692,-17.02474 -6.14142,-7.60043 -10.1912,-16.83003 -11.4656,-26.50961 -0.7481,-5.46687 -0.48525,-11.0008 -0.53207,-16.52298 -0.007,-76.90814 -0.0558,-132.64046 0.062,-209.54854 -0.0317,-3.60879 0.0825,-7.16598 0.77831,-10.72724 2.27339,-12.66071 9.15811,-24.46589 19.20252,-32.52874 8.14841,-6.65185 18.27181,-10.82694 28.74015,-11.85759 1.9206,-0.19904 3.80336,-0.29715 5.74409,-0.32005 z M 432.22154,0.0224223 C 368.51441,0.00771017 325.98328,0.00550835 262.27617,0.04604176 244.12224,0.06655868 225.96691,0.03353145 207.81392,0.13601593 185.18292,1.2417974 163.24297,12.803028 149.71623,31.010107 c -10.6929,14.103477 -16.24848,31.949168 -15.67602,49.622867 -0.0225,78.800616 -0.017,136.425316 0.0619,215.225876 0.0101,4.97721 -0.0816,9.97895 0.67494,14.91412 2.83018,20.5799 14.19885,39.92232 31.06068,52.11214 13.96997,10.31082 31.47736,15.63026 48.81509,15.0755 76.89211,0.0291 132.60824,0.008 209.50032,-0.055 4.94278,-0.0327 9.88877,0.0213 14.82941,-0.10493 22.30243,-1.33044 43.8497,-12.78957 57.2183,-30.71906 10.76649,-14.1465 16.34839,-32.07458 15.75644,-49.82545 0.0237,-78.81482 0.015,-136.45372 -0.0634,-215.268489 -0.003,-4.937991 0.0771,-9.900172 -0.67726,-14.795597 C 508.35887,46.384951 496.75062,26.85282 479.59711,14.680616 465.95159,4.8360104 449.04038,-0.38725542 432.22155,0.02239227 Z M 213.41635,24.845616 c 81.09163,0.01331 141.00766,-0.01 222.09902,0.09528 9.0896,0.415352 18.06461,3.250509 25.78735,7.975795 11.36657,6.939381 20.02523,18.331532 23.68396,31.147377 1.57866,5.494299 2.22812,11.228346 2.11521,16.937532 0.0467,16.878144 0.005,33.7565 0.0205,50.63474 -0.002,63.70766 0.0278,106.24017 -0.0882,169.94726 -0.42928,9.50523 -3.55219,18.99387 -8.77067,26.97306 -6.36483,9.81928 -16.11204,17.46626 -27.1621,21.40378 -5.36268,1.94909 -11.12765,2.97419 -16.83099,3.09928 -5.85343,0.17106 -11.71002,-0.004 -17.56482,0.0657 -75.5738,-0.0102 -129.97204,0.0237 -205.54552,-0.0783 -5.62531,-0.1751 -11.19872,-1.27457 -16.42625,-3.16207 -9.32775,-3.31736 -17.6681,-9.2933 -23.84692,-17.02474 -6.14142,-7.60043 -10.1912,-16.83003 -11.4656,-26.50961 -0.7481,-5.46687 -0.48525,-11.0008 -0.53207,-16.52298 -0.007,-76.90814 -0.0558,-132.64046 0.062,-209.548546 -0.0317,-3.608784 0.0825,-7.165976 0.77831,-10.727233 2.27339,-12.660716 9.15811,-24.465898 19.20252,-32.528744 8.14841,-6.651844 18.27181,-10.826936 28.74015,-11.857586 1.9206,-0.199044 3.80336,-0.297155 5.74409,-0.320053 z" />
</svg>